<mxfile host="app.diagrams.net" modified="2024-02-05T12:28:03.183Z" agent="Mozilla/5.0 (X11; Linux x86_64) AppleWebKit/537.36 (KHTML, like Gecko) Chrome/121.0.0.0 Safari/537.36" etag="38eaNCWrs6metqtzIZAA" version="23.1.1" type="device">
  <diagram name="Page-1" id="CsowZ75N0q1UIMiUFe9o">
    <mxGraphModel dx="784" dy="1153" grid="1" gridSize="10" guides="1" tooltips="1" connect="1" arrows="1" fold="1" page="1" pageScale="1" pageWidth="827" pageHeight="1169" math="0" shadow="0">
      <root>
        <mxCell id="0" />
        <mxCell id="1" parent="0" />
        <mxCell id="JTjlEEoMjAzAeeGtWYQF-1" value="Executor&lt;br&gt;Pod" style="ellipse;whiteSpace=wrap;html=1;aspect=fixed;fontSize=12;" parent="1" vertex="1">
          <mxGeometry x="511" y="273" width="56" height="56" as="geometry" />
        </mxCell>
        <mxCell id="JTjlEEoMjAzAeeGtWYQF-2" value="Executor&lt;br&gt;Pod" style="ellipse;whiteSpace=wrap;html=1;aspect=fixed;fontSize=12;" parent="1" vertex="1">
          <mxGeometry x="505" y="273" width="56" height="56" as="geometry" />
        </mxCell>
        <mxCell id="JTjlEEoMjAzAeeGtWYQF-3" value="Data sanitization&lt;br&gt;service" style="rounded=0;whiteSpace=wrap;html=1;" parent="1" vertex="1">
          <mxGeometry x="222" y="59" width="120" height="60" as="geometry" />
        </mxCell>
        <mxCell id="JTjlEEoMjAzAeeGtWYQF-4" value="" style="endArrow=classic;html=1;rounded=0;exitX=0.25;exitY=1;exitDx=0;exitDy=0;entryX=0.25;entryY=0;entryDx=0;entryDy=0;" parent="1" source="JTjlEEoMjAzAeeGtWYQF-3" target="JTjlEEoMjAzAeeGtWYQF-11" edge="1">
          <mxGeometry width="50" height="50" relative="1" as="geometry">
            <mxPoint x="412" y="389" as="sourcePoint" />
            <mxPoint x="492" y="74" as="targetPoint" />
          </mxGeometry>
        </mxCell>
        <mxCell id="JTjlEEoMjAzAeeGtWYQF-6" value="Spark operator" style="rounded=0;whiteSpace=wrap;html=1;" parent="1" vertex="1">
          <mxGeometry x="222" y="420" width="120" height="60" as="geometry" />
        </mxCell>
        <mxCell id="JTjlEEoMjAzAeeGtWYQF-7" value="" style="endArrow=classic;html=1;entryX=0;entryY=0.5;entryDx=0;entryDy=0;rounded=0;" parent="1" target="JTjlEEoMjAzAeeGtWYQF-3" edge="1">
          <mxGeometry width="50" height="50" relative="1" as="geometry">
            <mxPoint x="50" y="89" as="sourcePoint" />
            <mxPoint x="221" y="74" as="targetPoint" />
          </mxGeometry>
        </mxCell>
        <mxCell id="JTjlEEoMjAzAeeGtWYQF-8" value="&lt;h1 style=&quot;line-height: 50%;&quot;&gt;&lt;span style=&quot;font-size: 12px; font-weight: 400;&quot;&gt;1. Incoming request about the&amp;nbsp; &amp;nbsp; &amp;nbsp; &amp;nbsp; status of a sanitization job&amp;nbsp; &amp;nbsp; &amp;nbsp; &amp;nbsp; &amp;nbsp; from use case applications&lt;/span&gt;&lt;/h1&gt;" style="text;html=1;strokeColor=none;fillColor=none;spacing=5;spacingTop=-20;whiteSpace=wrap;overflow=hidden;rounded=0;" parent="1" vertex="1">
          <mxGeometry x="49" y="24" width="181" height="56" as="geometry" />
        </mxCell>
        <mxCell id="JTjlEEoMjAzAeeGtWYQF-9" value="&lt;h1 style=&quot;line-height: 50%;&quot;&gt;&lt;span style=&quot;font-size: 12px; font-weight: 400;&quot;&gt;2. Request status information about&amp;nbsp; &amp;nbsp; &amp;nbsp; the SparkApplication&lt;/span&gt;&lt;/h1&gt;" style="text;html=1;strokeColor=none;fillColor=none;spacing=5;spacingTop=-20;whiteSpace=wrap;overflow=hidden;rounded=0;" parent="1" vertex="1">
          <mxGeometry x="50" y="154" width="205" height="42" as="geometry" />
        </mxCell>
        <mxCell id="JTjlEEoMjAzAeeGtWYQF-20" style="edgeStyle=orthogonalEdgeStyle;rounded=0;orthogonalLoop=1;jettySize=auto;html=1;exitX=0.75;exitY=1;exitDx=0;exitDy=0;entryX=0.75;entryY=0;entryDx=0;entryDy=0;" parent="1" source="JTjlEEoMjAzAeeGtWYQF-11" target="JTjlEEoMjAzAeeGtWYQF-6" edge="1">
          <mxGeometry relative="1" as="geometry" />
        </mxCell>
        <mxCell id="JTjlEEoMjAzAeeGtWYQF-23" style="edgeStyle=orthogonalEdgeStyle;rounded=0;orthogonalLoop=1;jettySize=auto;html=1;exitX=0.25;exitY=1;exitDx=0;exitDy=0;entryX=0.25;entryY=0;entryDx=0;entryDy=0;" parent="1" source="JTjlEEoMjAzAeeGtWYQF-11" target="JTjlEEoMjAzAeeGtWYQF-6" edge="1">
          <mxGeometry relative="1" as="geometry" />
        </mxCell>
        <mxCell id="JTjlEEoMjAzAeeGtWYQF-11" value="K8s API" style="rounded=0;whiteSpace=wrap;html=1;" parent="1" vertex="1">
          <mxGeometry x="222" y="240" width="120" height="60" as="geometry" />
        </mxCell>
        <mxCell id="JTjlEEoMjAzAeeGtWYQF-12" value="&lt;h1 style=&quot;line-height: 50%;&quot;&gt;&lt;span style=&quot;font-size: 12px; font-weight: 400;&quot;&gt;3. Forward request affecting Spark&#39;s&amp;nbsp; &amp;nbsp; &amp;nbsp; CRDs to the Spark operator&lt;/span&gt;&lt;/h1&gt;" style="text;html=1;strokeColor=none;fillColor=none;spacing=5;spacingTop=-20;whiteSpace=wrap;overflow=hidden;rounded=0;" parent="1" vertex="1">
          <mxGeometry x="48" y="334" width="207" height="42" as="geometry" />
        </mxCell>
        <mxCell id="JTjlEEoMjAzAeeGtWYQF-13" value="&lt;h1 style=&quot;line-height: 50%;&quot;&gt;&lt;span style=&quot;font-size: 12px; font-weight: 400;&quot;&gt;B. Forward pod events to keep&amp;nbsp; &amp;nbsp; &amp;nbsp; &amp;nbsp; &amp;nbsp; &amp;nbsp; &amp;nbsp; up-to-date the state of Spark&amp;nbsp; &amp;nbsp; &amp;nbsp; &amp;nbsp; &amp;nbsp; &amp;nbsp; &amp;nbsp; applications&lt;/span&gt;&lt;/h1&gt;" style="text;html=1;strokeColor=none;fillColor=none;spacing=5;spacingTop=-20;whiteSpace=wrap;overflow=hidden;rounded=0;" parent="1" vertex="1">
          <mxGeometry x="320" y="326" width="207" height="56" as="geometry" />
        </mxCell>
        <mxCell id="JTjlEEoMjAzAeeGtWYQF-22" style="rounded=0;orthogonalLoop=1;jettySize=auto;html=1;exitX=0;exitY=0.5;exitDx=0;exitDy=0;entryX=1;entryY=0.25;entryDx=0;entryDy=0;dashed=1;" parent="1" source="JTjlEEoMjAzAeeGtWYQF-15" target="JTjlEEoMjAzAeeGtWYQF-11" edge="1">
          <mxGeometry relative="1" as="geometry" />
        </mxCell>
        <mxCell id="JTjlEEoMjAzAeeGtWYQF-15" value="Driver&lt;br&gt;pod" style="ellipse;whiteSpace=wrap;html=1;aspect=fixed;fontSize=12;" parent="1" vertex="1">
          <mxGeometry x="499" y="200" width="55" height="55" as="geometry" />
        </mxCell>
        <mxCell id="JTjlEEoMjAzAeeGtWYQF-16" value="Executor&lt;br&gt;pod" style="ellipse;whiteSpace=wrap;html=1;aspect=fixed;fontSize=12;" parent="1" vertex="1">
          <mxGeometry x="499" y="273" width="56" height="56" as="geometry" />
        </mxCell>
        <mxCell id="JTjlEEoMjAzAeeGtWYQF-17" value="" style="endArrow=classic;html=1;rounded=0;fontSize=12;dashed=1;entryX=1;entryY=0.75;entryDx=0;entryDy=0;exitX=0;exitY=0.5;exitDx=0;exitDy=0;" parent="1" source="JTjlEEoMjAzAeeGtWYQF-16" target="JTjlEEoMjAzAeeGtWYQF-11" edge="1">
          <mxGeometry width="50" height="50" relative="1" as="geometry">
            <mxPoint x="460" y="260" as="sourcePoint" />
            <mxPoint x="750" y="260" as="targetPoint" />
          </mxGeometry>
        </mxCell>
        <mxCell id="JTjlEEoMjAzAeeGtWYQF-24" value="&lt;h1 style=&quot;line-height: 50%;&quot;&gt;&lt;span style=&quot;font-size: 12px; font-weight: 400;&quot;&gt;A. Pod events&lt;/span&gt;&lt;/h1&gt;" style="text;html=1;strokeColor=none;fillColor=none;spacing=5;spacingTop=-20;whiteSpace=wrap;overflow=hidden;rounded=0;" parent="1" vertex="1">
          <mxGeometry x="368" y="253" width="207" height="30" as="geometry" />
        </mxCell>
      </root>
    </mxGraphModel>
  </diagram>
</mxfile>
